<?xml version="1.0" encoding="UTF-8" standalone="no"?>
<!-- Created with Inkscape (http://www.inkscape.org/) -->

<svg
   xmlns:dc="http://purl.org/dc/elements/1.1/"
   xmlns:cc="http://creativecommons.org/ns#"
   xmlns:rdf="http://www.w3.org/1999/02/22-rdf-syntax-ns#"
   xmlns:svg="http://www.w3.org/2000/svg"
   xmlns="http://www.w3.org/2000/svg"
   xmlns:sodipodi="http://sodipodi.sourceforge.net/DTD/sodipodi-0.dtd"
   xmlns:inkscape="http://www.inkscape.org/namespaces/inkscape"
   width="1024"
   height="1024"
   viewBox="0 0 270.93332 270.93334"
   version="1.1"
   id="svg8"
   inkscape:version="0.92.3 (2405546, 2018-03-11)"
   sodipodi:docname="testreport.svg"
   inkscape:export-filename="D:\Projekte\Python\TTS_WIP_New_Icons\res\img\icons\testreport_24.png"
   inkscape:export-xdpi="2.25"
   inkscape:export-ydpi="2.25">
  <defs
     id="defs2" />
  <sodipodi:namedview
     id="base"
     pagecolor="#d6a8d6"
     bordercolor="#666666"
     borderopacity="1.0"
     inkscape:pageopacity="0"
     inkscape:pageshadow="2"
     inkscape:zoom="1.1972656"
     inkscape:cx="319.06035"
     inkscape:cy="512"
     inkscape:document-units="px"
     inkscape:current-layer="layer1"
     showgrid="true"
     units="px"
     inkscape:window-width="2560"
     inkscape:window-height="1378"
     inkscape:window-x="1072"
     inkscape:window-y="162"
     inkscape:window-maximized="1">
    <inkscape:grid
       type="xygrid"
       id="grid1372"
       spacingx="8.4666666"
       spacingy="8.4666666"
       empspacing="8"
       dotted="false" />
  </sodipodi:namedview>
  <metadata
     id="metadata5">
    <rdf:RDF>
      <cc:Work
         rdf:about="">
        <dc:format>image/svg+xml</dc:format>
        <dc:type
           rdf:resource="http://purl.org/dc/dcmitype/StillImage" />
        <dc:title />
      </cc:Work>
    </rdf:RDF>
  </metadata>
  <g
     inkscape:label="Ebene 1"
     inkscape:groupmode="layer"
     id="layer1"
     transform="translate(0,-26.066651)">
    <path
       style="fill:#fe7a00;fill-opacity:1;stroke-width:35.08127213"
       d="M 512 128 L 512 896 L 832 896 L 880 896 C 959.99998 896 1024 832.00001 1024 752 L 1024 736 L 1024 704 L 1024 272 L 1024 208 C 1024 184 1016 163.99994 1002 150 L 1001.998 150 C 987.99811 136.0006 967.99943 128 944 128 L 880 128 L 512 128 z "
       transform="matrix(0.26458333,0,0,0.26458333,0,26.066651)"
       id="path995" />
    <path
       style="fill:#63666a;fill-opacity:1;stroke-width:35.08127213"
       d="M 144 128 C 64.000028 128 1.8947806e-014 191.99999 0 272 L 0 288 L 0 320 L 0 752 L 0 816 C 4.7369516e-015 840 7.9999997 859.99999 22 874 C 36.00194 887.99937 56.00057 896 80 896 L 144 896 L 512 896 L 512 128 L 192 128 L 160 128 L 144 128 z "
       transform="matrix(0.26458333,0,0,0.26458333,0,26.066651)"
       id="path982" />
    <path
       style="fill:#ffffff;fill-opacity:1;stroke:none;stroke-width:0.92582005px;stroke-linecap:butt;stroke-linejoin:miter;stroke-opacity:1"
       d="M 160 192 C 106.66668 192 64 234.66666 64 288 L 64 298.66602 L 64 320 L 64 832 L 512 832 L 512 192 L 192 192 L 170.66602 192 L 160 192 z "
       transform="matrix(0.26458333,0,0,0.26458333,0,26.066651)"
       id="path980" />
    <path
       style="fill:#63666a;fill-opacity:1;stroke:none;stroke-width:0.1207652px;stroke-linecap:butt;stroke-linejoin:miter;stroke-opacity:1"
       d="M 33.866666,93.799976 H 118.53334 V 110.73332 H 33.866666 Z"
       id="path901"
       inkscape:connector-curvature="0" />
    <path
       inkscape:connector-curvature="0"
       id="path985"
       d="m 33.866676,127.66665 h 50.8 v 16.93334 h -50.8 z"
       style="fill:#63666a;fill-opacity:1;stroke:none;stroke-width:0.09354432px;stroke-linecap:butt;stroke-linejoin:miter;stroke-opacity:1" />
    <path
       style="fill:#fe7a00;fill-opacity:1;stroke:none;stroke-width:0.10801567px;stroke-linecap:butt;stroke-linejoin:miter;stroke-opacity:1"
       d="m 33.866676,161.53331 h 67.733334 v 16.93334 H 33.866676 Z"
       id="path987"
       inkscape:connector-curvature="0" />
    <path
       inkscape:connector-curvature="0"
       id="path989"
       d="m 33.866676,195.39997 h 84.666664 v 16.93334 H 33.866676 Z"
       style="fill:#63666a;fill-opacity:1;stroke:none;stroke-width:0.12076519px;stroke-linecap:butt;stroke-linejoin:miter;stroke-opacity:1" />
    <path
       style="fill:none;stroke:#ffffff;stroke-width:25.39999962;stroke-linecap:butt;stroke-linejoin:miter;stroke-miterlimit:4;stroke-dasharray:none;stroke-opacity:1"
       d="m 157.6917,152.53748 31.74999,31.74999 59.26667,-59.26667"
       id="path991"
       inkscape:connector-curvature="0"
       sodipodi:nodetypes="ccc" />
  </g>
</svg>
